<?xml version="1.0" encoding="UTF-8"?>
<svg id="Calque_1" xmlns="http://www.w3.org/2000/svg" version="1.1" viewBox="0 0 64 64">
  <!-- Generator: Adobe Illustrator 30.0.0, SVG Export Plug-In . SVG Version: 2.1.1 Build 123)  -->
  <defs>
    <style>
      .st0 {
        fill: none;
        stroke: #73cad8;
        stroke-miterlimit: 10;
        stroke-width: .52px;
      }

      .st1 {
        opacity: .22;
      }

      .st1, .st2 {
        fill: #fff;
      }

      .st3 {
        fill: #8cd9ea;
      }
    </style>
  </defs>
  <rect class="st0" x=".37" y=".36" width="63.26" height="63.26" rx="3.97" ry="3.97"/>
  <rect class="st3" x=".37" y=".38" width="63.26" height="63.26" rx="3.97" ry="3.97"/>
  <path class="st1" d="M63.58,3.68s-1.31-2.57-3.46-2.55c-1.35.01-55.89-.04-55.89-.04,0,0-3.04.32-3.86,2.65C.94,1.41,2.86.4,4.34.38s55.58.03,55.58.03c0,0,3.17.17,3.65,3.27Z"/>
  <g>
    <path class="st2" d="M51.57,27.72c-.41-2.54-1.11-5.8-1.8-8.52-.65-2.52-2.06-4.08-4.33-4.78-1.94-.6-4.11-.97-6.21-1.34-1.39-.24-2.84-.49-4.19-.8-.21-.02-.41,0-.6.01h-.15c-1.52.12-3.02.73-4.24,1.76L13.97,30.13c-2.21,2.65-2.18,6.36.11,9.03,1.78,1.59,3.51,3.44,5.18,5.22,1.84,1.96,3.74,3.98,5.72,5.69,1.28,1.1,2.8,1.65,4.36,1.65s3.24-.58,4.67-1.74l16.03-16.03c1.45-1.77,1.94-3.74,1.53-6.22ZM47.64,31.98l-15.68,15.68c-1.54,1.3-3.5,1.27-5.1-.08-1.88-1.58-3.68-3.52-5.43-5.4-1.61-1.72-3.27-3.51-4.96-4.99-1.37-1.63-1.4-3.54-.1-5.09l15.63-15.64c.71-.6,1.56-.98,2.39-1.05.41-.03.74,0,1.19.08,2.79.42,6.31,1.23,8.47,1.8,1.64.43,2.26,1.06,2.7,2.7.72,2.75,1.43,6.08,1.8,8.47.22,1.4-.08,2.52-.92,3.53Z"/>
    <path class="st2" d="M39.13,20.25c-1.61.19-2.78,1.08-3.29,2.48-.56,1.54-.18,3.45.93,4.64.73.78,1.67,1.18,2.73,1.18.43,0,.88-.07,1.34-.2,2.49-.72,3.23-2.98,2.86-4.79-.37-1.82-1.96-3.63-4.56-3.31ZM39.89,25.4c-.79.13-1.16-.38-1.24-.85-.08-.52.16-1.1.79-1.2.79-.13,1.16.38,1.24.85.08.52-.16,1.1-.79,1.2Z"/>
    <path class="st2" d="M33.02,27.2c-.45-.48-1.26-.72-2.08-.16l-9.34,9.34c-.5.58-.46,1.56.08,2.11.28.28.69.43,1.09.43.34,0,.69-.11.99-.32l9.35-9.35c.56-.76.36-1.57-.09-2.04Z"/>
    <path class="st2" d="M34.66,31.09l-9.23,9.23c-.45.61-.39,1.53.13,2.05.28.29.69.43,1.1.43.37,0,.74-.12,1.02-.36l9.27-9.27c.62-.82.36-1.69-.15-2.14-.5-.46-1.38-.63-2.15.06Z"/>
  </g>
</svg>