<?xml version="1.0" encoding="UTF-8"?>
<svg id="Calque_1" xmlns="http://www.w3.org/2000/svg" xmlns:xlink="http://www.w3.org/1999/xlink" version="1.1" viewBox="0 0 64 64">
  <!-- Generator: Adobe Illustrator 30.0.0, SVG Export Plug-In . SVG Version: 2.1.1 Build 123)  -->
  <defs>
    <style>
      .st0 {
        fill: none;
        stroke: #73cad8;
        stroke-miterlimit: 10;
        stroke-width: .52px;
      }

      .st1 {
        fill: url(#Dégradé_sans_nom_3);
      }

      .st2 {
        fill: #ebebeb;
      }

      .st3, .st4 {
        fill: #fff;
      }

      .st5 {
        fill: #134489;
        fill-rule: evenodd;
      }

      .st6 {
        fill: #8cd9ea;
      }

      .st4 {
        isolation: isolate;
        opacity: .22;
      }
    </style>
    <linearGradient id="Dégradé_sans_nom_3" data-name="Dégradé sans nom 3" x1="46.68" y1="30.05" x2="46.68" y2="63.74" gradientUnits="userSpaceOnUse">
      <stop offset="0" stop-color="#f2f4f4"/>
      <stop offset="1" stop-color="#e8e8e8"/>
    </linearGradient>
  </defs>
  <rect class="st0" x=".37" y=".36" width="63.26" height="63.26" rx="3.97" ry="3.97"/>
  <rect class="st6" x=".37" y=".38" width="63.26" height="63.26" rx="3.97" ry="3.97"/>
  <path class="st4" d="M63.58,3.68s-1.31-2.57-3.46-2.55c-1.35,0-55.89-.04-55.89-.04,0,0-3.04.32-3.86,2.65C.94,1.41,2.86.4,4.34.38c1.48-.02,55.58.03,55.58.03,0,0,3.17.17,3.65,3.27h0Z"/>
  <g>
    <path class="st3" d="M51.57,27.72c-.41-2.54-1.11-5.8-1.8-8.52-.65-2.52-2.06-4.08-4.33-4.78-1.94-.6-4.11-.97-6.21-1.34-1.39-.24-2.84-.49-4.19-.8-.21-.02-.41,0-.6.01h-.15c-1.52.12-3.02.73-4.24,1.76L13.97,30.13c-2.21,2.65-2.18,6.36.11,9.03,1.78,1.59,3.51,3.44,5.18,5.22,1.84,1.96,3.74,3.98,5.72,5.69,1.28,1.1,2.8,1.65,4.36,1.65s3.24-.58,4.67-1.74l16.03-16.03c1.45-1.77,1.94-3.74,1.53-6.22h0ZM47.64,31.98l-15.68,15.68c-1.54,1.3-3.5,1.27-5.1-.08-1.88-1.58-3.68-3.52-5.43-5.4-1.61-1.72-3.27-3.51-4.96-4.99-1.37-1.63-1.4-3.54-.1-5.09l15.63-15.64c.71-.6,1.56-.98,2.39-1.05.41-.03.74,0,1.19.08,2.79.42,6.31,1.23,8.47,1.8,1.64.43,2.26,1.06,2.7,2.7.72,2.75,1.43,6.08,1.8,8.47.22,1.4-.08,2.52-.92,3.53h.01Z"/>
    <path class="st3" d="M39.13,20.25c-1.61.19-2.78,1.08-3.29,2.48-.56,1.54-.18,3.45.93,4.64.73.78,1.67,1.18,2.73,1.18.43,0,.88-.07,1.34-.2,2.49-.72,3.23-2.98,2.86-4.79-.37-1.82-1.96-3.63-4.56-3.31h0ZM39.89,25.4c-.79.13-1.16-.38-1.24-.85-.08-.52.16-1.1.79-1.2.79-.13,1.16.38,1.24.85.08.52-.16,1.1-.79,1.2Z"/>
    <path class="st3" d="M33.02,27.2c-.45-.48-1.26-.72-2.08-.16l-9.34,9.34c-.5.58-.46,1.56.08,2.11.28.28.69.43,1.09.43.34,0,.69-.11.99-.32l9.35-9.35c.56-.76.36-1.57-.09-2.04h0Z"/>
    <path class="st3" d="M34.66,31.09l-9.23,9.23c-.45.61-.39,1.53.13,2.05.28.29.69.43,1.1.43.37,0,.74-.12,1.02-.36l9.27-9.27c.62-.82.36-1.69-.15-2.14-.5-.46-1.38-.63-2.15.06h.01Z"/>
  </g>
  <g>
    <path class="st2" d="M59.82,63.97h-30.13v-.52h30.09s1.78.05,2.91-1.42c.81-1.01.76-2.2.76-2.21v-29.74h.52v29.74s.06,1.37-.87,2.53c-1.19,1.55-2.94,1.62-3.28,1.62Z"/>
    <path class="st1" d="M59.73,63.73h-30.05s-.69-12.53,10.36-24.09c10.68-10.76,21.84-9.55,23.65-9.55-.04,18.79-.07,29.69-.07,29.69,0,0,0,1.27-.83,2.39-1.13,1.51-3.05,1.57-3.05,1.57h-.01Z"/>
    <path id="path-8" class="st5" d="M46.93,53.18h1.56c.69,0,1.02-.25,1.17-.25.13,0,.23.1.23.31,0,.23-.25,1.27-.43,1.6-.13.23-.25.33-.69.33h-1.83c0,.52.02.88.03,1.06.02.64.14,1.65.34,1.93.33.48,1.34,1.02,3.35,1.02,2.59,0,4.32-.51,5.85-1.83,1.63-1.4,2.14-3.71,2.14-6.33,0-3.23-1.35-5.32-2.44-6.36-2.34-2.24-5.24-2.54-7.22-2.54-.51,0-1.53.08-1.73.18-.23.1-.32.23-.32.51v10.39h0v-.02h0ZM43.84,45.32c-.58.74-5.78,6.71-6.64,7.86h5.83v1.98h-7.9c-.31,0-.64-.1-.64-.38,0-.31.23-.53.33-.66.18-.2,10.51-12.6,10.73-12.85.41-.47.58-.58.86-.57.43.02.37.34,1.05.26.06,0,.92-.06,1.92-.06,3.18,0,7.43,0,10.2,2.9,1.27,1.32,2.47,3.43,2.47,6.46,0,3.2-1.35,5.65-2.77,7.1-1.17,1.2-3.82,2.87-8.53,2.87h-9.24c-.28,0-.36-.11-.36-.29s.08-.33.2-.33c.23,0,.79-.02,1.2-.08.97-.1,1.15-.5,1.2-1.29.08-1.38.08-3.07.08-3.07v-9.85h0Z"/>
  </g>
</svg>